<?xml version="1.0" standalone="no"?>
<!DOCTYPE svg PUBLIC "-//W3C//DTD SVG 20010904//EN"
 "http://www.w3.org/TR/2001/REC-SVG-20010904/DTD/svg10.dtd">
<svg version="1.0" xmlns="http://www.w3.org/2000/svg"
 width="512.000000pt" height="512.000000pt" viewBox="0 0 512.000000 512.000000"
 preserveAspectRatio="xMidYMid meet">
<metadata>
Created by potrace 1.14, written by Peter Selinger 2001-2017
</metadata>
<g transform="translate(0.000000,512.000000) scale(0.100000,-0.100000)"
fill="#000000" stroke="none">
<path d="M2388 4675 c-1 -1 -33 -6 -70 -9 -75 -8 -91 -11 -196 -32 -689 -141
-1276 -639 -1536 -1302 -105 -266 -146 -502 -141 -807 4 -203 5 -214 36 -375
39 -199 96 -362 194 -555 52 -103 131 -234 172 -285 6 -8 41 -51 76 -95 100
-125 296 -310 397 -373 14 -9 27 -19 30 -23 15 -19 191 -120 296 -171 113 -54
293 -121 374 -139 74 -17 227 -47 270 -54 25 -4 133 -9 240 -10 196 -3 313 7
464 40 39 9 82 18 96 21 68 14 277 91 378 139 442 212 784 552 1002 995 34 68
100 233 100 249 0 6 4 19 9 29 20 38 64 229 86 367 10 69 13 406 4 495 -25
244 -93 479 -204 705 -36 72 -70 139 -77 150 -171 270 -319 437 -538 607 -277
213 -640 369 -969 414 -25 3 -57 8 -71 11 -28 6 -416 13 -422 8z m362 -1513
c117 -41 184 -84 269 -171 120 -126 173 -268 167 -456 -3 -90 -8 -124 -31
-185 -76 -205 -233 -347 -443 -401 -340 -87 -679 121 -769 472 -3 13 -7 70 -9
126 -3 78 1 118 17 175 61 219 231 389 451 448 95 26 264 22 348 -8z"/>
</g>
</svg>
